<svg width="62" height="64" viewBox="0 0 62 64" fill="none" xmlns="http://www.w3.org/2000/svg">
<path d="M31 64C48.0943 64 62 49.6457 62 32C62 14.3543 48.0943 0 31 0C13.9057 0 0 14.3543 0 32C0 49.6457 13.9057 64 31 64ZM31 4.48C45.7029 4.48 57.66 16.8229 57.66 32C57.66 47.1771 45.7029 59.52 31 59.52C16.2971 59.52 4.34 47.1771 4.34 32C4.34 16.8229 16.2971 4.48 31 4.48Z" fill="black"/>
<path d="M32.8726 42.9976C33.2902 43.4286 33.8469 43.6506 34.4037 43.6506C34.9604 43.6506 35.5171 43.4286 35.9347 42.9976C36.7824 42.1225 36.7824 40.6988 35.9347 39.8237L28.3429 31.9869L35.9347 24.1502C36.7824 23.2751 36.7824 21.8514 35.9347 20.9763C35.0869 20.1012 33.7077 20.1012 32.86 20.9763L23.7371 30.3935C23.3322 30.8114 23.1045 31.3861 23.1045 31.9739C23.1045 32.5616 23.3322 33.1363 23.7371 33.5543L32.8726 42.9976Z" fill="black"/>
</svg>
